# xmcd
#
# Track frame offsets: 
#        150
#        11460
#        23562
#        37205
#        49677
#        61467
#        76125
#        89975
#        99537
#        111297
#        122092
#        135230
#        148445
#        161632
#        173765
#        184465
#        195322
#        206182
#        218267
#        230582
#        243237
#        253805
#        265585
#        276662
#        289507
#
# Disc length: 4015 seconds
#
# Revision: 0
# Processed by: cddbd v1.5.1PL0 Copyright (c) Steve Scherf et al.
# Submitted via: ExactAudioCopy v0.95b2
#
DISCID=720fad19
DTITLE=Various Artist - Rare Windy City R&B Vocal Goups - Volume Two
DYEAR=1900
DGENRE=
TTITLE0=The Answers - Have No Fear
TTITLE1=The Answers - Keep Me Worried All the Time
TTITLE2=The Five C's - Whoo-Wee Baby
TTITLE3=The Five C's - Tell Me
TTITLE4=The Five C's - Goody, Goody
TTITLE5=The Five C's - My Heart's Got the Blues
TTITLE6=The Five C's - Whoo-Wee Baby
TTITLE7=The Five C's - There's No Tomorrow
TTITLE8=The Five C's - I Long for You
TTITLE9=The Five C's - Only by You (I Want to Be Loved)
TTITLE10=The Five C's - Going My Way
TTITLE11=The Moroccos - Pardon My Tears
TTITLE12=The Moroccos - Chicken
TTITLE13=The Moroccos - Somewhere Over the Rainbow
TTITLE14=The Moroccos - Red Hots and Chili Mac
TTITLE15=The Moroccos - What Is a Teen-Ager's Prayer
TTITLE16=The Moroccos - Bang Goes My Heart
TTITLE17=The Moroccos - Sad Sad Hours
TTITLE18=The Moroccos - The Hex
TTITLE19=The Palms - Edna
TTITLE20=The Sheppards - Sherry
TTITLE21=The Sheppards - Mozelle
TTITLE22=The Sheppards - Just Let Me Love You
TTITLE23=The Pastels - Put Your Arms Around Me
TTITLE24=The Pastels - Boom De De Boom
EXTD=
EXTT0=
EXTT1=
EXTT2=
EXTT3=
EXTT4=
EXTT5=
EXTT6=
EXTT7=
EXTT8=
EXTT9=
EXTT10=
EXTT11=
EXTT12=
EXTT13=
EXTT14=
EXTT15=
EXTT16=
EXTT17=
EXTT18=
EXTT19=
EXTT20=
EXTT21=
EXTT22=
EXTT23=
EXTT24=
PLAYORDER=
